#tb 0: 1/25
#media_type 0: video
#codec_id 0: rawvideo
#dimensions 0: 176x288
#sar 0: 0/1
0,          0,          0,        1,   152064, 0xd6f1e8bd
0,          1,          1,        1,   152064, 0x9dbdb6dd
0,          2,          2,        1,   152064, 0x5a7a2783
0,          3,          3,        1,   152064, 0x130f1637
0,          4,          4,        1,   152064, 0x76c97f48
